<svg data-v-423bf9ae="" xmlns="http://www.w3.org/2000/svg" viewBox="0 0 357 90" class="iconLeft"><!----><!----><!----><g data-v-423bf9ae="" id="b6d504e7-51eb-44a0-ab21-ed15d226d91d" fill="black" transform="matrix(5.612721889848748,0,0,5.612721889848748,101.98169423467745,-1.5575315116192954)"><path d="M3.42 13.55L3.42 4.97L0.06 4.97L0.06 3.75L8.16 3.75L8.16 4.97L4.80 4.97L4.80 13.55L3.42 13.55ZM9.49 13.55L9.49 6.13L10.84 6.13L10.84 13.55L9.49 13.55ZM10.16 4.70L10.16 4.70Q9.77 4.70 9.51 4.45L9.51 4.45L9.51 4.45Q9.25 4.20 9.25 3.84L9.25 3.84L9.25 3.84Q9.25 3.47 9.51 3.21L9.51 3.21L9.51 3.21Q9.77 2.95 10.16 2.95L10.16 2.95L10.16 2.95Q10.56 2.95 10.81 3.20L10.81 3.20L10.81 3.20Q11.07 3.44 11.07 3.81L11.07 3.81L11.07 3.81Q11.07 4.19 10.81 4.45L10.81 4.45L10.81 4.45Q10.56 4.70 10.16 4.70L10.16 4.70ZM22.68 6.06L22.68 6.06Q24.08 6.06 24.90 6.87L24.90 6.87L24.90 6.87Q25.72 7.69 25.72 9.28L25.72 9.28L25.72 13.55L24.37 13.55L24.37 9.44L24.37 9.44Q24.37 8.36 23.88 7.81L23.88 7.81L23.88 7.81Q23.38 7.27 22.46 7.27L22.46 7.27L22.46 7.27Q21.43 7.27 20.83 7.90L20.83 7.90L20.83 7.90Q20.23 8.54 20.23 9.73L20.23 9.73L20.23 13.55L18.89 13.55L18.89 9.44L18.89 9.44Q18.89 8.36 18.39 7.81L18.39 7.81L18.39 7.81Q17.89 7.27 16.97 7.27L16.97 7.27L16.97 7.27Q15.95 7.27 15.34 7.90L15.34 7.90L15.34 7.90Q14.74 8.54 14.74 9.73L14.74 9.73L14.74 13.55L13.40 13.55L13.40 6.13L14.69 6.13L14.69 7.24L14.69 7.24Q15.09 6.66 15.75 6.36L15.75 6.36L15.75 6.36Q16.41 6.06 17.25 6.06L17.25 6.06L17.25 6.06Q18.12 6.06 18.79 6.41L18.79 6.41L18.79 6.41Q19.46 6.76 19.82 7.43L19.82 7.43L19.82 7.43Q20.24 6.79 20.99 6.43L20.99 6.43L20.99 6.43Q21.74 6.06 22.68 6.06L22.68 6.06ZM34.90 9.88L34.90 9.88Q34.90 10.04 34.87 10.29L34.87 10.29L28.85 10.29L28.85 10.29Q28.98 11.27 29.71 11.87L29.71 11.87L29.71 11.87Q30.45 12.46 31.54 12.46L31.54 12.46L31.54 12.46Q32.87 12.46 33.68 11.56L33.68 11.56L34.43 12.43L34.43 12.43Q33.92 13.02 33.17 13.33L33.17 13.33L33.17 13.33Q32.42 13.64 31.50 13.64L31.50 13.64L31.50 13.64Q30.32 13.64 29.41 13.15L29.41 13.15L29.41 13.15Q28.50 12.67 28.01 11.80L28.01 11.80L28.01 11.80Q27.51 10.93 27.51 9.84L27.51 9.84L27.51 9.84Q27.51 8.76 27.99 7.90L27.99 7.90L27.99 7.90Q28.48 7.03 29.32 6.54L29.32 6.54L29.32 6.54Q30.17 6.06 31.23 6.06L31.23 6.06L31.23 6.06Q32.30 6.06 33.13 6.54L33.13 6.54L33.13 6.54Q33.96 7.03 34.43 7.90L34.43 7.90L34.43 7.90Q34.90 8.76 34.90 9.88L34.90 9.88ZM31.23 7.20L31.23 7.20Q30.27 7.20 29.62 7.78L29.62 7.78L29.62 7.78Q28.97 8.37 28.85 9.32L28.85 9.32L33.61 9.32L33.61 9.32Q33.50 8.39 32.85 7.79L32.85 7.79L32.85 7.79Q32.20 7.20 31.23 7.20L31.23 7.20ZM36.96 13.55L36.96 3.75L38.36 3.75L38.36 13.55L36.96 13.55ZM44.86 12.15L45.28 13.12L45.28 13.12Q44.98 13.37 44.55 13.50L44.55 13.50L44.55 13.50Q44.11 13.64 43.65 13.64L43.65 13.64L43.65 13.64Q42.53 13.64 41.92 13.03L41.92 13.03L41.92 13.03Q41.30 12.43 41.30 11.31L41.30 11.31L41.30 7.24L40.04 7.24L40.04 6.13L41.30 6.13L41.30 4.51L42.64 4.51L42.64 6.13L44.77 6.13L44.77 7.24L42.64 7.24L42.64 11.26L42.64 11.26Q42.64 11.86 42.95 12.18L42.95 12.18L42.95 12.18Q43.25 12.50 43.81 12.50L43.81 12.50L43.81 12.50Q44.42 12.50 44.86 12.15L44.86 12.15Z"></path></g><!----><g data-v-423bf9ae="" id="9fb4487a-81e8-4db2-8d96-b465f5f762a4" transform="matrix(1.086496965374246,0,0,1.086496965374246,-12.17703988214732,-9.852687067501414)" stroke="none" fill="black"><path d="M34.991 48.493l-8.562 10.209-3.555-3.555a1.38 1.38 0 0 0-1.948 0 1.389 1.389 0 0 0 0 1.953v-.006l4.75 4.756.005.002c.205.235.502.389.838.394.362.004.684-.163.896-.421l.008-.004 9.672-11.562a1.369 1.369 0 0 0-.169-1.936 1.37 1.37 0 0 0-1.935.17zM34.991 33.638l-8.562 10.209-3.555-3.555a1.38 1.38 0 0 0-1.948 0 1.389 1.389 0 0 0 0 1.953v-.005l4.75 4.756.005.002a1.128 1.128 0 0 0 1.734-.028l.008-.004 9.672-11.562a1.368 1.368 0 0 0-.169-1.935 1.369 1.369 0 0 0-1.935.169z"></path><path d="M82.271 54.92l1.614-1.615c.062-.053.129-.097.188-.15a3.38 3.38 0 0 0 0-4.769 3.373 3.373 0 0 0-4.767.002l-2.021 2.022a23.33 23.33 0 0 0-2.297-1.354V30.351c-.005-4.752-3.868-8.611-8.616-8.617h-7.021c-1.427-2.406-4.628-4.349-8.896-5.336a6.668 6.668 0 0 0-6.668-6.54 6.675 6.675 0 0 0-6.672 6.612c-4.191 1.007-7.4 2.913-8.854 5.263h-7.883c-4.746.005-8.604 3.865-8.611 8.617v48.547c.008 4.747 3.865 8.606 8.611 8.611h29.445a23.03 23.03 0 0 0 14.592 5.185c12.767 0 23.114-10.352 23.117-23.122a22.972 22.972 0 0 0-5.261-14.651zM43.786 12.601a3.943 3.943 0 0 1 3.938 3.931 3.952 3.952 0 0 1-3.938 3.937c-2.172-.005-3.933-1.767-3.933-3.937s1.761-3.931 3.933-3.931zM14.507 78.897V30.351c.006-3.222 2.649-5.873 5.871-5.876h7.03c0 .039-.009.076-.009.114v2.509h32.779v-2.509c0-.039-.009-.076-.01-.114h6.203c3.222.004 5.867 2.649 5.871 5.876v17.498a22.615 22.615 0 0 0-3.623-.988c.062-.292.099-.594.099-.904a4.311 4.311 0 0 0-4.304-4.308 4.317 4.317 0 0 0-4.315 4.308c.001.311.037.613.101.905-10.759 1.984-18.909 11.383-18.912 22.711a23.03 23.03 0 0 0 5.704 15.197H20.378c-3.217-.006-5.865-2.655-5.871-5.873zm52.44-32.941a2.54 2.54 0 0 1-2.532 2.54 2.542 2.542 0 0 1-2.54-2.54 2.536 2.536 0 0 1 5.072 0zm-2.532 41.433c-9.845-.019-17.802-7.973-17.82-17.817.019-9.838 7.976-17.8 17.82-17.817 9.835.017 17.792 7.979 17.811 17.817-.019 9.844-7.976 17.798-17.811 17.817z"></path><path d="M66.056 68.803v-13.3a2.024 2.024 0 0 0-2.028-2.025 2.025 2.025 0 0 0-2.025 2.025H62v14.979l8.317 8.318a2.038 2.038 0 0 0 2.869 0c.79-.788.79-2.074 0-2.87l-7.13-7.127z"></path></g><!----></svg>