<svg data-v-fde0c5aa="" xmlns="http://www.w3.org/2000/svg" viewBox="0 0 300 300" class="icon"><!----><defs data-v-fde0c5aa=""><!----></defs><rect data-v-fde0c5aa="" fill="#E6F2FE" x="0" y="0" width="300px" height="300px" class="logo-background-square"></rect><!----><defs data-v-fde0c5aa=""><linearGradient data-v-fde0c5aa="" gradientTransform="rotate(25)" id="80b5030e-52be-49f0-aa71-1c8da94c7475" x1="0%" y1="0%" x2="100%" y2="0%"><stop data-v-fde0c5aa="" offset="0%" stop-color="#51A4FB" stop-opacity="1"></stop><stop data-v-fde0c5aa="" offset="100%" stop-color="#51A4FB" stop-opacity="1"></stop></linearGradient></defs><g data-v-fde0c5aa="" id="563d5684-aa3c-45bc-8651-01e43208501a" fill="url(#80b5030e-52be-49f0-aa71-1c8da94c7475)" stroke="none" transform="matrix(2.6558814709148235,0,0,2.6558814709148235,18.13676760226619,13.818320986553626)"><path d="M34.991 48.493l-8.562 10.209-3.555-3.555a1.38 1.38 0 0 0-1.948 0 1.389 1.389 0 0 0 0 1.953v-.006l4.75 4.756.005.002c.205.235.502.389.838.394.362.004.684-.163.896-.421l.008-.004 9.672-11.562a1.369 1.369 0 0 0-.169-1.936 1.37 1.37 0 0 0-1.935.17zM34.991 33.638l-8.562 10.209-3.555-3.555a1.38 1.38 0 0 0-1.948 0 1.389 1.389 0 0 0 0 1.953v-.005l4.75 4.756.005.002a1.128 1.128 0 0 0 1.734-.028l.008-.004 9.672-11.562a1.368 1.368 0 0 0-.169-1.935 1.369 1.369 0 0 0-1.935.169z"></path><path d="M82.271 54.92l1.614-1.615c.062-.053.129-.097.188-.15a3.38 3.38 0 0 0 0-4.769 3.373 3.373 0 0 0-4.767.002l-2.021 2.022a23.33 23.33 0 0 0-2.297-1.354V30.351c-.005-4.752-3.868-8.611-8.616-8.617h-7.021c-1.427-2.406-4.628-4.349-8.896-5.336a6.668 6.668 0 0 0-6.668-6.54 6.675 6.675 0 0 0-6.672 6.612c-4.191 1.007-7.4 2.913-8.854 5.263h-7.883c-4.746.005-8.604 3.865-8.611 8.617v48.547c.008 4.747 3.865 8.606 8.611 8.611h29.445a23.03 23.03 0 0 0 14.592 5.185c12.767 0 23.114-10.352 23.117-23.122a22.972 22.972 0 0 0-5.261-14.651zM43.786 12.601a3.943 3.943 0 0 1 3.938 3.931 3.952 3.952 0 0 1-3.938 3.937c-2.172-.005-3.933-1.767-3.933-3.937s1.761-3.931 3.933-3.931zM14.507 78.897V30.351c.006-3.222 2.649-5.873 5.871-5.876h7.03c0 .039-.009.076-.009.114v2.509h32.779v-2.509c0-.039-.009-.076-.01-.114h6.203c3.222.004 5.867 2.649 5.871 5.876v17.498a22.615 22.615 0 0 0-3.623-.988c.062-.292.099-.594.099-.904a4.311 4.311 0 0 0-4.304-4.308 4.317 4.317 0 0 0-4.315 4.308c.001.311.037.613.101.905-10.759 1.984-18.909 11.383-18.912 22.711a23.03 23.03 0 0 0 5.704 15.197H20.378c-3.217-.006-5.865-2.655-5.871-5.873zm52.44-32.941a2.54 2.54 0 0 1-2.532 2.54 2.542 2.542 0 0 1-2.54-2.54 2.536 2.536 0 0 1 5.072 0zm-2.532 41.433c-9.845-.019-17.802-7.973-17.82-17.817.019-9.838 7.976-17.8 17.82-17.817 9.835.017 17.792 7.979 17.811 17.817-.019 9.844-7.976 17.798-17.811 17.817z"></path><path d="M66.056 68.803v-13.3a2.024 2.024 0 0 0-2.028-2.025 2.025 2.025 0 0 0-2.025 2.025H62v14.979l8.317 8.318a2.038 2.038 0 0 0 2.869 0c.79-.788.79-2.074 0-2.87l-7.13-7.127z"></path></g><!----></svg>