<svg data-v-423bf9ae="" xmlns="http://www.w3.org/2000/svg" viewBox="0 0 381 112" class="iconLeft"><!----><!----><!----><g data-v-423bf9ae="" id="a29ec903-a126-4b05-b298-1f93cd9224c9" fill="white" transform="matrix(5.681817956043021,0,0,5.681817956043021,129.52020452690823,24.930554284065057)"><path d="M1.44 1.47L3.71 1.47L3.71 9.60L2.38 10.01L2.38 10.50L6.30 10.50L6.44 9.87L5.11 9.60L5.11 1.47L7.34 1.47L7.80 3.49L8.50 3.35L8.50 0.70L0.28 0.70L0.28 3.35L0.98 3.49ZM11.76 3.12L9.30 3.46L9.37 4.03L10.50 4.24L10.50 9.66L9.27 10.08L9.27 10.50L12.67 10.50L12.81 9.83L11.76 9.63ZM10.04 1.08C10.25 1.47 10.58 1.81 10.98 2.02C11.38 1.78 11.72 1.46 11.96 1.05C11.75 0.64 11.42 0.32 11.02 0.11C10.60 0.35 10.28 0.67 10.04 1.08ZM20.50 9.63L20.50 5.15C20.89 4.63 21.45 4.24 22.19 4.24C22.90 4.24 23.60 4.68 23.60 5.74L23.60 9.66L22.60 10.08L22.60 10.50L25.86 10.50L26.00 9.87L24.86 9.63L24.86 5.74C24.86 3.95 23.94 3.09 22.81 3.09C21.91 3.09 20.93 3.67 20.31 4.55C19.98 3.56 19.35 3.09 18.51 3.09C17.72 3.09 16.76 3.49 16.13 4.27L16.13 3.12L13.65 3.46L13.72 4.07L14.88 4.30L14.88 9.66L13.66 10.08L13.66 10.50L16.98 10.50L17.12 9.83L16.13 9.63L16.13 4.96C16.51 4.52 17.25 4.24 17.85 4.24C18.62 4.24 19.24 4.68 19.24 5.74L19.24 9.66L18.23 10.08L18.23 10.50L21.43 10.50L21.57 9.87ZM33.14 6.75C33.14 5.00 32.63 3.11 30.14 3.11C28.53 3.11 26.77 4.35 26.77 6.83C26.77 9.25 28.34 10.63 30.18 10.63C31.12 10.63 32.12 10.28 33.03 9.56L32.72 9.03C32.00 9.49 31.32 9.72 30.66 9.72C29.25 9.72 28.17 8.60 28.17 6.75ZM28.21 5.99C28.25 4.62 29.22 3.86 30.10 3.86C30.94 3.86 31.74 4.52 31.74 5.99ZM38.32 1.19L38.32 0.70L34.40 0.70L34.26 1.33L35.59 1.60L35.59 9.60L34.26 10.01L34.26 10.50L38.18 10.50L38.32 9.87L36.99 9.60L36.99 1.60ZM43.83 9.20C43.26 9.55 42.84 9.69 42.41 9.69C41.69 9.69 41.59 9.38 41.59 8.36L41.59 4.24L43.83 4.24L43.83 3.47L41.59 3.47L41.59 1.79L40.89 1.79L40.40 3.33L39.23 3.75L39.23 4.24L40.33 4.24L40.33 8.69C40.33 9.83 40.68 10.67 41.92 10.67C42.76 10.67 43.67 10.21 44.10 9.53Z"></path></g><!----><g data-v-423bf9ae="" id="aa377e96-c5b6-433d-81d2-2881f775a2c9" transform="matrix(1.1111111111111112,0,0,1.1111111111111112,0.44444444444444287,0.44444444444444287)" stroke="none" fill="white"><path d="M50 0C22.386 0 0 22.386 0 50s22.386 50 50 50c27.613 0 50-22.386 50-50S77.613 0 50 0zm0 96C24.595 96 4 75.405 4 50S24.595 4 50 4s46 20.595 46 46-20.595 46-46 46z"></path><path d="M48 12v37.171L34.443 62.728l2.829 2.828L50.828 52 52 50.828V12z"></path></g><!----></svg>