<svg data-v-fde0c5aa="" xmlns="http://www.w3.org/2000/svg" viewBox="0 0 300 300" class="icon"><!----><defs data-v-fde0c5aa=""><!----></defs><rect data-v-fde0c5aa="" fill="transparent" x="0" y="0" width="300px" height="300px" class="logo-background-square"></rect><!----><defs data-v-fde0c5aa=""><linearGradient data-v-fde0c5aa="" gradientTransform="rotate(25)" id="c7fe8527-932f-4988-a607-f09b28782afa" x1="0%" y1="0%" x2="100%" y2="0%"><stop data-v-fde0c5aa="" offset="0%" stop-color="#410FF8" stop-opacity="1"></stop><stop data-v-fde0c5aa="" offset="100%" stop-color="#410FF8" stop-opacity="1"></stop></linearGradient></defs><g data-v-fde0c5aa="" id="d8c1d22b-757a-4fbb-b8c8-9853b9c26c59" fill="url(#c7fe8527-932f-4988-a607-f09b28782afa)" stroke="none" transform="matrix(2.2,0,0,2.2,39.999999999999986,39.999999999999986)"><path d="M50 0C22.386 0 0 22.386 0 50s22.386 50 50 50c27.613 0 50-22.386 50-50S77.613 0 50 0zm0 96C24.595 96 4 75.405 4 50S24.595 4 50 4s46 20.595 46 46-20.595 46-46 46z"></path><path d="M48 12v37.171L34.443 62.728l2.829 2.828L50.828 52 52 50.828V12z"></path></g><!----></svg>