<svg data-v-423bf9ae="" xmlns="http://www.w3.org/2000/svg" viewBox="0 0 60 60" class="icon"><!----><!----><!----><!----><g data-v-423bf9ae="" id="089d13c8-1603-468e-a54e-c716d91e3be0" transform="matrix(0.6,0,0,0.6,0,0)" stroke="none" fill="black"><path d="M50 0C22.386 0 0 22.386 0 50s22.386 50 50 50c27.613 0 50-22.386 50-50S77.613 0 50 0zm0 96C24.595 96 4 75.405 4 50S24.595 4 50 4s46 20.595 46 46-20.595 46-46 46z"></path><path d="M48 12v37.171L34.443 62.728l2.829 2.828L50.828 52 52 50.828V12z"></path></g><!----></svg>